#!OML:ASF E:\emotionWalksFemale\Project 1\Capture day 1\Session 1\Female1.ASF
:FULLY-SPECIFIED
:DEGREES
271
root 9.81896 14.3731 22.8143 197.723 -27.8077 -179.042
lowerback 18.6761 4.00862 1.67142
upperback -3.56193 5.90339 0.981215
thorax -14.5059 2.59807 -1.64458
lowerneck -12.7732 -6.19372 -6.1546
upperneck -11.1151 -8.51488 2.24765
head -1.06688 -4.51097 1.47145
rclavicle -1.05753e-013 3.33958e-014
rhumerus -18.1666 37.8298 -92.2745
rradius 77.2992
rwrist 12.1429
rhand -6.36397 -63.3475
rfingers 7.12502
rthumb 19.4824 92.3915
lclavicle -1.05753e-013 3.33958e-014
lhumerus -58.5917 -7.65623 91.4543
lradius 52.729
lwrist -21.6242
lhand 0.0924183 -36.5879
lfingers 7.12502
lthumb 25.6789 -8.29993
rfemur -39.6054 -20.2618 36.0271
rtibia 55.7739
rfoot -30.839 -24.9236
rtoes -0.208351
lfemur -49.0943 -1.08188 -20.447
ltibia 58.574
lfoot -26.2349 -8.44972
ltoes -11.9135
272
root 9.84764 14.5399 22.7213 196.951 -30.5586 -179.045
lowerback 18.3395 4.21045 1.92416
upperback -3.67455 6.24611 1.11579
thorax -14.4176 2.7438 -1.71474
lowerneck -12.9231 -5.77363 -5.46683
upperneck -10.1605 -7.95488 1.06728
head -0.833762 -4.21304 0.978542
rclavicle 3.69739e-014 1.11319e-014
rhumerus -16.6689 40.2832 -90.4438
rradius 82.2468
rwrist 10.7321
rhand -5.96212 -61.9644
rfingers 7.12502
rthumb 19.8688 90.9688
lclavicle 3.69739e-014 1.11319e-014
lhumerus -59.8971 -8.50242 91.9358
lradius 54.3473
lwrist -21.5201
lhand -0.831419 -35.2861
lfingers 7.12502
lthumb 24.7938 -6.87336
rfemur -37.023 -22.1807 36.2242
rtibia 52.7607
rfoot -29.1137 -24.8637
rtoes -1.15874
lfemur -46.9342 -1.64634 -20.0782
ltibia 55.7604
lfoot -23.6827 -10.5834
ltoes -6.80655
273
root 9.87136 14.7185 22.6199 196.276 -33.4424 -179.257
lowerback 17.8811 4.2873 1.80187
upperback -3.79376 6.32963 1.24651
thorax -14.311 2.80564 -1.493
lowerneck -13.0906 -5.12096 -4.4651
upperneck -9.17301 -7.12708 -0.219592
head -0.6007 -3.79849 0.42383
rclavicle -2.78299e-015 1.59028e-014
rhumerus -15.8249 41.7928 -89.2361
rradius 86.7861
rwrist 10.2744
rhand -5.93042 -61.8669
rfingers 7.12502
rthumb 19.8992 90.8681
lclavicle -2.78299e-015 1.59028e-014
lhumerus -61.078 -9.07901 91.9246
lradius 55.6424
lwrist -20.7704
lhand -1.63935 -34.5558
lfingers 7.12502
lthumb 24.0193 -6.03865
rfemur -34.3186 -24.0093 36.1288
rtibia 49.552
rfoot -26.6349 -25.1106
rtoes -3.16364
lfemur -44.6198 -2.1397 -20.0341
ltibia 52.6687
lfoot -21.083 -12.314
ltoes -6.36116
274
root 9.88691 14.9182 22.5088 195.56 -36.5305 -179.451
lowerback 17.5382 4.5718 2.08489
upperback -3.91276 6.77801 1.3063
thorax -14.2091 2.99463 -1.68871
lowerneck -13.0828 -4.74892 -4.31526
upperneck -8.36166 -6.55738 -0.936821
head -0.385248 -3.49158 0.18683
rclavicle 6.48038e-014 -2.06736e-014
rhumerus -15.8656 41.8344 -88.2407
rradius 90.7195
rwrist 10.0122
rhand -4.44558 -62.8205
rfingers 7.12502
rthumb 21.326 91.6671
lclavicle 6.48038e-014 -2.06736e-014
lhumerus -61.9177 -10.5166 92.3326
lradius 56.3853
lwrist -19.8439
lhand -3.25338 -33.7314
lfingers 7.12502
lthumb 22.4708 -5.01874
rfemur -31.2926 -25.5506 35.8634
rtibia 46.1006
rfoot -23.8363 -25.2182
rtoes -5.94457
lfemur -42.0781 -2.70396 -19.9507
ltibia 49.2088
lfoot -17.7354 -14.4031
ltoes -1.7337
275
root 9.89085 15.1274 22.4222 195.104 -39.6874 -179.411
lowerback 16.9513 4.81274 2.9982
upperback -4.158 7.2822 1.21814
thorax -14.0005 3.1525 -2.38719
lowerneck -12.9088 -4.16097 -4.18844
upperneck -7.76149 -5.70724 -1.38324
head -0.249629 -3.04418 0.0566616
rclavicle -1.41137e-014 3.33958e-014
rhumerus -16.4539 41.7329 -87.644
rradius 93.9896
rwrist 9.78205
rhand -5.71424 -60.6782
rfingers 7.12502
rthumb 20.107 270.342
lclavicle -1.41137e-014 3.33958e-014
lhumerus -62.4625 -12.0087 92.5088
lradius 56.7039
lwrist -19.4643
lhand -4.87547 -33.0406
lfingers 7.12502
lthumb 20.9131 -4.14792
rfemur -28.7451 -26.4422 35.827
rtibia 42.5561
rfoot -20.6359 -25.1158
rtoes -7.38444
lfemur -40.0365 -3.4497 -19.6463
ltibia 45.4294
lfoot -13.3189 -15.902
ltoes 3.72274
276
root 9.89754 15.3765 22.2861 194.943 -43.1515 -180.01
lowerback 15.7798 4.51083 2.3417
upperback -4.32553 6.69407 1.18953
thorax -13.587 2.95917 -1.79783
lowerneck -12.703 -2.5685 -2.24487
upperneck -7.07586 -3.76242 -2.53362
head -0.136831 -2.09681 -0.542697
rclavicle -2.94201e-014 -3.97569e-014
rhumerus -17.6583 43.2105 -88.8492
rradius 96.4212
rwrist 9.48894
rhand -3.92783 -61.0152
rfingers 7.12502
rthumb 21.8233 270.195
lclavicle -2.94201e-014 -3.97569e-014
lhumerus -62.9981 -11.9862 91.1105
lradius 56.7716
lwrist -19.6849
lhand -6.00652 -33.0161
lfingers 7.12502
lthumb 19.8261 -4.00731
rfemur -25.6461 -26.7976 35.1855
rtibia 38.8056
rfoot -16.8628 -25.6626
rtoes -8.92685
lfemur -37.4188 -4.15107 -19.7434
ltibia 41.1834
lfoot -8.24032 -17.4971
ltoes 8.31955
277
root 9.88552 15.6224 22.1806 194.389 -46.5362 -180.547
lowerback 15.2988 4.53651 2.61617
upperback -4.273 6.7617 1.17223
thorax -13.1979 2.98384 -1.93815
lowerneck -12.7205 -1.45836 -1.65025
upperneck -6.3525 -2.28743 -3.44001
head 0.0894731 -1.3655 -0.877366
rclavicle 1.7016e-013 7.31528e-014
rhumerus -18.993 44.037 -89.39
rradius 98.067
rwrist 9.31487
rhand -3.98111 -60.8381
rfingers 7.12502
rthumb 21.7721 270.366
lclavicle 1.7016e-013 7.31528e-014
lhumerus -62.9395 -12.7877 90.645
lradius 56.3476
lwrist -19.8271
lhand -7.61306 -32.8455
lfingers 7.12502
lthumb 18.2811 -3.6845
rfemur -22.2023 -26.0775 34.1587
rtibia 35.0848
rfoot -12.1574 -26.7334
rtoes -11.946
lfemur -34.3748 -5.21113 -19.788
ltibia 36.5296
lfoot -1.68556 -18.1446
ltoes 16.7131
278
root 9.88293 15.8817 22.0662 194.352 -49.7843 -181.095
lowerback 14.3924 4.9517 2.8683
upperback -4.21954 7.32392 1.13476
thorax -12.5323 3.25477 -2.16397
lowerneck -13.1512 -0.791131 -1.96393
upperneck -5.49389 -1.27027 -4.0742
head 0.444534 -0.861508 -0.996831
rclavicle -9.26337e-014 1.59028e-014
rhumerus -20.5887 45.5021 -88.122
rradius 99.8599
rwrist 9.66031
rhand -1.17293 -60.4472
rfingers 7.12502
rthumb 24.4664 271.095
lclavicle -9.26337e-014 1.59028e-014
lhumerus -62.4221 -14.4395 91.0304
lradius 55.5023
lwrist -19.5748
lhand -9.63838 -31.8568
lfingers 7.12502
lthumb 16.3319 -2.52451
rfemur -19.1222 -23.8421 33.3809
rtibia 31.38
rfoot -8.0647 -28.4698
rtoes -13.0117
lfemur -31.6277 -5.96144 -19.6678
ltibia 31.361
lfoot 6.39419 -17.0732
ltoes 27.4387
279
root 9.87299 16.164 21.9518 194.212 -53.333 -182.04
lowerback 14.0685 4.92298 2.90774
upperback -4.37007 7.26547 0.935769
thorax -12.4797 3.21935 -2.36387
lowerneck -12.9617 0.339116 -0.848812
upperneck -4.44578 0.196007 -5.24313
head 0.78591 -0.154082 -1.50285
rclavicle 3.45885e-014 -1.43125e-014
rhumerus -23.4955 45.392 -90.1175
rradius 100.239
rwrist 11.7808
rhand 3.55158 -58.3261
rfingers 7.12502
rthumb 28.9875 273.908
lclavicle 3.45885e-014 -1.43125e-014
lhumerus -62.3972 -15.4902 90.6869
lradius 54.3373
lwrist -19.0495
lhand -11.1415 -30.3921
lfingers 7.12502
lthumb 14.8842 -0.946787
rfemur -15.6496 -20.4919 32.0929
rtibia 27.6615
rfoot -5.26712 -31.6736
rtoes -8.32377
lfemur -28.4236 -7.65499 -19.6044
ltibia 26.1332
lfoot 14.7625 -12.5206
ltoes 39.017
280
root 9.84792 16.4359 21.8403 194.656 -56.6941 -183.29
lowerback 13.528 4.98953 2.86818
upperback -4.49032 7.30136 0.660362
thorax -12.2567 3.23914 -2.60039
lowerneck -13.2219 1.63067 0.873765
upperneck -3.21996 1.81687 -7.0572
head 1.33381 0.588159 -2.33574
rclavicle -6.67916e-014 -1.11319e-014
rhumerus -27.1919 45.4351 -93.2357
rradius 100.073
rwrist 11.7103
rhand 1.37334 -57.8364
rfingers 7.12502
rthumb 26.9051 274.059
lclavicle -6.67916e-014 -1.11319e-014
lhumerus -61.5715 -16.3612 90.0371
lradius 52.5726
lwrist -18.2285
lhand -11.1951 -29.2069
lfingers 7.12502
lthumb 14.8325 0.242193
rfemur -12.5668 -16.136 30.912
rtibia 24.046
rfoot -4.12997 -36.0527
rtoes 2.49791
lfemur -25.8876 -10.2628 -19.3764
ltibia 21.4174
lfoot 20.3153 -2.05
ltoes 53.2405
281
root 9.81275 16.7403 21.7307 195.474 -59.9924 -184.831
lowerback 12.8104 5.06028 2.75389
upperback -4.62873 7.32843 0.438648
thorax -11.9653 3.26557 -2.71608
lowerneck -13.271 3.06939 2.73219
upperneck -1.86664 3.65551 -8.95761
head 1.9886 1.43342 -3.23353
rclavicle -6.13251e-014 -1.74931e-014
rhumerus -31.3834 47.0748 -96.7236
rradius 99.5954
rwrist 10.6778
rhand -2.00911 -61.6398
rfingers 7.12502
rthumb 23.6647 450.203
lclavicle -6.13251e-014 -1.74931e-014
lhumerus -60.5583 -16.8705 89.3701
lradius 50.4735
lwrist -17.3673
lhand -10.0222 -28.2408
lfingers 7.12502
lthumb 15.9623 1.12148
rfemur -9.95598 -10.8678 29.8105
rtibia 21.1696
rfoot -8.6803 -40.9072
rtoes 23.7517
lfemur -24.2596 -16.8584 -17.6832
ltibia 17.6195
lfoot 15.7958 10.3345
ltoes 58.3926
282
root 9.7727 17.011 21.6319 196.808 -63.2772 -186.862
lowerback 12.0829 5.15711 2.58046
upperback -4.76355 7.38351 0.232949
thorax -11.6721 3.31001 -2.78456
lowerneck -14.1959 4.45147 3.66656
upperneck 0.764709 5.65065 -10.1195
head 2.92821 2.31113 -3.30533
rclavicle -8.94531e-016 5.24792e-014
rhumerus -35.4054 47.2049 -100.397
rradius 98.4795
rwrist 10.7694
rhand -2.54642 -62.9894
rfingers 7.12502
rthumb 23.1492 451.618
lclavicle -8.94531e-016 5.24792e-014
lhumerus -59.3268 -17.2988 88.898
lradius 47.9886
lwrist -16.6842
lhand -8.55808 -26.9302
lfingers 7.12502
lthumb 17.3718 2.31346
rfemur -7.79183 -4.52811 28.7736
rtibia 19.0773
rfoot -22.2733 -43.1396
rtoes 46.2908
lfemur -22.9759 -24.4011 -16.4851
ltibia 15.3496
lfoot 3.92204 18.3857
ltoes 61.3796
283
root 9.73285 17.226 21.5494 198.968 -66.6679 -189.667
lowerback 11.3257 5.23344 2.41817
upperback -4.9431 7.40891 -0.0358224
thorax -11.4028 3.33485 -2.91794
lowerneck -14.9628 5.78669 4.66768
upperneck 3.44872 7.58504 -10.7137
head 4.06283 3.17588 -3.45317
rclavicle 3.05134e-014 -7.95139e-015
rhumerus -39.3651 47.0563 -103.994
rradius 97.4004
rwrist 11.1726
rhand -2.12919 -66.1545
rfingers 7.12502
rthumb 23.5495 454.733
lclavicle 3.05134e-014 -7.95139e-015
lhumerus -57.6142 -17.3568 88
lradius 44.967
lwrist -17.6033
lhand -6.18691 -26.2709
lfingers 7.12502
lthumb 19.6527 2.75574
rfemur -6.05357 2.58017 27.8885
rtibia 17.6824
rfoot -37.5594 -39.8714
rtoes 57.7075
lfemur -22.4908 -36.5265 -14.4954
ltibia 14.9309
lfoot -27.3978 1.9816
ltoes 70.4135
284
root 9.70104 17.4766 21.4647 202.377 -70.428 -193.574
lowerback 10.5996 5.15664 2.32277
upperback -5.22779 7.23813 -0.353402
thorax -11.2662 3.25133 -3.11179
lowerneck -14.9088 7.21213 6.38838
upperneck 5.44853 9.51166 -11.6654
head 4.95192 4.05997 -3.81444
rclavicle -2.43014e-014 -1.90833e-014
rhumerus -43.3674 46.8643 -107.893
rradius 96.4495
rwrist 10.1353
rhand -2.94829 -73.266
rfingers 7.12502
rthumb 22.7636 461.943
lclavicle -2.43014e-014 -1.90833e-014
lhumerus -55.7152 -17.257 86.9423
lradius 41.6942
lwrist -18.8703
lhand -4.09403 -25.3854
lfingers 7.12502
lthumb 21.6637 3.42256
rfemur -4.99438 9.63644 27.3673
rtibia 17.281
rfoot -48.7132 -31.3739
rtoes 64.3166
lfemur -21.3953 -38.4022 -15.6616
ltibia 15.6692
lfoot -35.1375 -7.21857
ltoes 69.9441
285
root 9.67715 17.7384 21.3799 207.343 -74.0944 -198.808
lowerback 9.89433 5.15485 2.1579
upperback -5.50948 7.17188 -0.545287
thorax -11.1588 3.2261 -3.15616
lowerneck -14.4239 8.70592 7.40966
upperneck 6.90999 11.5743 -11.895
head 5.58593 5.06271 -3.81166
rclavicle 4.72548e-014 1.11319e-014
rhumerus -44.8535 44.4109 -108.779
rradius 94.3546
rwrist 13.1391
rhand -2.80043 -62.4506
rfingers 7.12502
rthumb 22.9055 451.11
lclavicle 4.72548e-014 1.11319e-014
lhumerus -53.2486 -16.596 85.7623
lradius 38.0613
lwrist -21.3864
lhand -3.02186 -24.0885
lfingers 7.12502
lthumb 22.693 4.5972
rfemur -4.61339 15.188 27.1456
rtibia 17.4737
rfoot -49.1844 -29.1239
rtoes 67.4105
lfemur -19.8909 -34.5908 -18.1616
ltibia 16.617
lfoot -37.8963 -9.76835
ltoes 70.0358
